<?xml version="1.0" standalone="no"?>
<!DOCTYPE svg PUBLIC "-//W3C//DTD SVG 20010904//EN"
 "http://www.w3.org/TR/2001/REC-SVG-20010904/DTD/svg10.dtd">
<svg version="1.0" xmlns="http://www.w3.org/2000/svg"
 width="400.000000pt" height="219.000000pt" viewBox="0 0 400.000000 219.000000"
 preserveAspectRatio="xMidYMid meet">

<g transform="translate(0.000000,219.000000) scale(0.100000,-0.100000)"
fill="#000000" stroke="none">
<path d="M930 2091 c0 -5 6 -11 14 -14 8 -3 27 -32 42 -64 l29 -58 3 -617 c1
-340 0 -618 -4 -618 -12 0 -129 73 -224 140 -184 130 -312 269 -384 417 -67
136 -70 220 -11 318 34 55 34 56 7 36 -123 -87 -127 -271 -10 -453 90 -141
346 -364 543 -474 316 -177 708 -268 944 -220 90 18 164 51 195 85 24 27 22
26 -37 -3 -151 -77 -414 -73 -682 11 -92 29 -293 111 -300 123 -3 5 38 -7 91
-26 53 -19 98 -33 100 -31 2 2 4 293 5 648 1 711 1 707 63 773 l33 36 -208 0
c-116 0 -209 -4 -209 -9z"/>
<path d="M462 1738 c-220 -25 -355 -139 -376 -317 -5 -43 26 -157 65 -238 111
-232 451 -528 773 -673 34 -15 67 -34 75 -44 39 -46 -33 -208 -136 -307 -37
-35 -79 -72 -93 -81 l-25 -17 51 0 c29 -1 83 9 120 20 162 50 260 127 300 237
10 26 20 50 24 55 4 4 47 -2 96 -13 331 -76 595 -55 742 57 59 45 103 129 115
218 3 26 9 31 45 37 138 23 214 164 170 312 -17 54 -91 130 -143 146 -22 7
-122 14 -222 17 l-183 5 0 -55 c0 -46 3 -55 20 -60 19 -5 20 -14 20 -132 0
-118 -1 -127 -20 -132 -17 -5 -20 -14 -20 -59 l0 -54 160 0 c88 0 160 -4 160
-8 0 -23 -67 -106 -108 -134 -102 -70 -291 -102 -467 -79 -285 38 -588 156
-832 323 -369 253 -557 547 -492 769 19 64 106 148 184 178 33 12 69 26 80 31
l20 8 -20 -1 c-11 -1 -49 -5 -83 -9z m1719 -727 c26 -27 29 -36 29 -95 0 -36
-5 -76 -11 -89 -13 -28 -48 -47 -84 -47 l-25 0 0 130 0 130 31 0 c20 0 40 -10
60 -29z"/>
<path d="M3220 1735 c-153 -31 -280 -102 -424 -236 -6 -6 3 -22 24 -44 l33
-34 59 54 c122 113 282 177 448 177 141 1 250 -36 368 -124 l54 -40 -23 -24
c-12 -13 -27 -24 -31 -24 -5 0 -40 18 -76 39 -214 126 -464 110 -660 -41 -88
-68 -88 -67 18 -173 l93 -93 51 38 c143 108 264 110 400 6 l48 -38 29 28 c16
15 29 31 29 36 0 17 -117 99 -170 119 -96 37 -214 27 -328 -29 l-52 -25 -30
28 -31 29 53 28 c204 106 414 87 572 -53 19 -16 40 -29 48 -29 7 0 54 41 103
91 l90 91 -65 60 c-174 161 -405 228 -630 183z"/>
<path d="M3279 1247 c-57 -21 -103 -53 -148 -102 l-42 -45 3 -143 3 -142 27
-3 c23 -3 27 -8 30 -40 2 -28 7 -37 21 -36 9 1 106 2 216 3 l198 1 -1 38 c-1
34 2 37 27 40 l28 3 -4 152 -5 151 -38 34 c-95 83 -230 121 -315 89z m-9 -212
c0 -87 3 -105 15 -105 10 0 15 -10 15 -30 l0 -30 -80 0 -80 0 0 30 c0 23 4 30
20 30 18 0 20 7 20 60 0 53 -2 60 -20 60 -27 0 -30 60 -2 60 9 1 28 7 42 15
14 8 35 14 48 15 21 0 22 -3 22 -105z m313 74 c22 -27 22 -57 0 -81 -16 -18
-15 -19 5 -34 30 -21 29 -64 -3 -94 -19 -18 -38 -24 -86 -26 -56 -3 -64 -1
-90 26 -39 38 -38 60 2 60 17 0 37 -7 46 -16 22 -21 57 -14 61 13 2 14 -3 23
-17 28 -27 8 -27 29 0 56 16 16 18 23 8 35 -15 18 -38 18 -45 -1 -7 -16 -84
-22 -84 -6 0 17 41 60 63 65 48 10 122 -3 140 -25z"/>
<path d="M2670 1155 c-105 -34 -170 -126 -170 -242 0 -121 64 -214 169 -244
68 -20 198 -17 241 5 81 42 117 95 127 186 l6 60 -112 0 -111 0 0 -45 c0 -41
2 -45 25 -45 31 0 33 -22 5 -50 -27 -27 -73 -25 -107 4 -27 23 -28 27 -28 121
0 94 1 98 28 121 40 34 87 32 130 -6 30 -26 43 -30 91 -30 l56 0 0 80 0 80
-60 0 c-34 0 -60 -4 -60 -10 0 -6 -13 -4 -30 5 -44 23 -146 28 -200 10z"/>
<path d="M1370 1091 c0 -51 3 -60 19 -63 18 -3 16 -13 -28 -128 -32 -86 -52
-126 -64 -128 -14 -3 -17 -14 -17 -58 l0 -54 95 0 95 0 0 55 c0 44 -3 55 -16
55 -12 0 -15 6 -10 23 3 12 6 25 6 30 0 4 29 7 65 7 61 0 66 -2 75 -26 13 -34
13 -34 -10 -34 -18 0 -20 -7 -20 -55 l0 -55 130 0 130 0 0 55 c0 47 -3 55 -19
55 -14 0 -28 26 -65 123 -25 68 -46 126 -46 130 0 4 7 7 15 7 12 0 15 13 15
60 l0 60 -175 0 -175 0 0 -59z m190 -193 c0 -5 -18 -8 -40 -8 -22 0 -40 4 -40
9 0 7 20 68 36 111 5 13 43 -86 44 -112z"/>
<path d="M3195 584 c2 -71 4 -133 4 -137 1 -9 306 -8 329 0 9 4 12 39 12 129
0 68 -1 124 -2 125 -2 0 -81 3 -175 6 l-173 6 5 -129z m133 -8 c-3 -30 -5 -31
-48 -31 -43 0 -45 1 -48 32 -3 30 -1 32 35 35 56 5 64 0 61 -36z m180 7 c-3
-37 -4 -38 -45 -41 -38 -3 -43 -1 -49 22 -11 44 1 56 51 56 l46 0 -3 -37z"/>
</g>
</svg>
